<?xml version="1.0" encoding="utf-8"?>
<!-- Generator: Adobe Illustrator 24.3.0, SVG Export Plug-In . SVG Version: 6.00 Build 0)  -->
<svg version="1.1" xmlns="http://www.w3.org/2000/svg" xmlns:xlink="http://www.w3.org/1999/xlink" x="0px" y="0px"
	 viewBox="0 0 50 50" style="enable-background:new 0 0 50 50;" xml:space="preserve">
<style type="text/css">
	.st0{fill:url(#SVGID_1_);}
	.st1{fill:url(#SVGID_2_);}
	.st2{fill:url(#SVGID_3_);}
	.st3{fill:#171A1D;}
	.st4{fill:url(#SVGID_4_);}
	.st5{fill:url(#SVGID_5_);}
	.st6{fill:url(#SVGID_6_);}
</style>
<g id="BACKGROUND">
</g>
<g id="OBJECT">
	<g>
		<g>
			
				<linearGradient id="SVGID_1_" gradientUnits="userSpaceOnUse" x1="609.4173" y1="488.94" x2="621.8809" y2="505.7942" gradientTransform="matrix(-1 0 0 -1 1162.4613 969.8099)">
				<stop  offset="0" style="stop-color:#F47373"/>
				<stop  offset="1" style="stop-color:#CF1F1F"/>
			</linearGradient>
			<rect x="535.58" y="462.9" class="st0" width="20.33" height="16.19"/>
		</g>
		<linearGradient id="SVGID_2_" gradientUnits="userSpaceOnUse" x1="497.1588" y1="470.9942" x2="545.4772" y2="470.9942">
			<stop  offset="0" style="stop-color:#F47373"/>
			<stop  offset="1" style="stop-color:#CF1F1F"/>
		</linearGradient>
		<polygon class="st1" points="497.16,419.07 497.16,435.16 529.39,435.16 529.39,506.83 513.25,506.83 513.25,500.07 
			497.16,500.07 497.16,522.92 545.48,522.92 545.48,419.07 		"/>
		<linearGradient id="SVGID_3_" gradientUnits="userSpaceOnUse" x1="463.7635" y1="419.2142" x2="467.8712" y2="524.4354">
			<stop  offset="0" style="stop-color:#F47373"/>
			<stop  offset="1" style="stop-color:#CF1F1F"/>
		</linearGradient>
		<polygon class="st2" points="489.94,443.23 489.94,419.07 441.63,419.07 441.63,522.92 489.94,522.92 489.94,506.83 
			457.71,506.83 457.71,435.16 473.86,435.16 473.86,443.23 		"/>
		<rect x="431.2" y="462.9" class="st3" width="83.51" height="16.19"/>
	</g>
	<g>
		<g>
			
				<linearGradient id="SVGID_4_" gradientUnits="userSpaceOnUse" x1="1115.5327" y1="940.3358" x2="1119.9172" y2="946.2648" gradientTransform="matrix(-1 0 0 -1 1162.4613 969.8099)">
				<stop  offset="0" style="stop-color:#F47373"/>
				<stop  offset="1" style="stop-color:#CF1F1F"/>
			</linearGradient>
			<rect x="40.78" y="23.15" class="st4" width="7.15" height="5.7"/>
		</g>
		<linearGradient id="SVGID_5_" gradientUnits="userSpaceOnUse" x1="27.269" y1="26" x2="44.2667" y2="26">
			<stop  offset="0" style="stop-color:#F47373"/>
			<stop  offset="1" style="stop-color:#CF1F1F"/>
		</linearGradient>
		<polygon class="st5" points="27.27,7.73 27.27,13.39 38.61,13.39 38.61,38.61 32.93,38.61 32.93,36.23 27.27,36.23 27.27,44.27 
			44.27,44.27 44.27,7.73 		"/>
		<linearGradient id="SVGID_6_" gradientUnits="userSpaceOnUse" x1="15.521" y1="7.7845" x2="16.9661" y2="44.7999">
			<stop  offset="0" style="stop-color:#F47373"/>
			<stop  offset="1" style="stop-color:#CF1F1F"/>
		</linearGradient>
		<polygon class="st6" points="24.73,16.23 24.73,7.73 7.73,7.73 7.73,44.27 24.73,44.27 24.73,38.61 13.39,38.61 13.39,13.39 
			19.07,13.39 19.07,16.23 		"/>
		<rect x="4.06" y="23.15" class="st3" width="29.38" height="5.7"/>
	</g>
	<text transform="matrix(1 0 0 1 562.9048 528.3476)" style="font-family:'TrebuchetMS'; font-size:162.2023px;">Asad</text>
</g>
</svg>
