<?xml version="1.0" encoding="utf-8"?>
<!-- Generator: Adobe Illustrator 24.0.1, SVG Export Plug-In . SVG Version: 6.00 Build 0)  -->
<svg version="1.1" id="Layer_1" xmlns="http://www.w3.org/2000/svg" xmlns:xlink="http://www.w3.org/1999/xlink" x="0px" y="0px"
	 viewBox="0 0 100 106" style="enable-background:new 0 0 100 106;" xml:space="preserve">
<style type="text/css">
	.st0{fill:#42032C;stroke:#000000;stroke-miterlimit:10;}
	.st1{enable-background:new    ;}
	.st2{fill:#FFFFFF;}
</style>
<rect x="-1088" y="-250.5" class="st0" width="282" height="303"/>
<text transform="matrix(0.973 0 0 1 -1051.0313 -148.5039)" class="st2" style="font-family:'Montserrat-Medium'; font-size:93.5307px;">A</text>
<text transform="matrix(0.9406 -0.2814 0.2866 0.9581 -961.3696 6.459)" class="st2" style="font-family:'Blacklife'; font-size:347.1298px;">S</text>
<text transform="matrix(0.973 0 0 1 -1051.0313 6.4961)" class="st2" style="font-family:'Montserrat-Medium'; font-size:93.5307px;">A</text>
<rect x="-2" y="-2.5" class="st0" width="104" height="112"/>
<g class="st1">
	<path class="st2" d="M31.5,30.1H19.7l-2.5,5.7h-3.3L24,12.9h3.2l10.1,22.9H34L31.5,30.1z M30.4,27.5l-4.8-11.2l-4.8,11.2H30.4z"/>
</g>
<path class="st2" d="M88.8,89.3c0.1,0,0.2-0.1,0.3-0.1c1.9-1.3,3.7-2.7,5.3-4.3c0.1,0,0.1,0,0.2-0.2c0.1,0,0.1,0,0.2-0.1
	c0-0.1,0-0.1,0.1-0.2c-0.1-0.1-0.1-0.1-0.3,0l-0.1,0.2l-0.1,0c-3.3,2.6-6.7,4.9-10.5,6.8c-0.2,0.2-0.4,0.3-0.8,0.4
	c-0.5,0.3-1,0.5-1.5,0.7l-0.8,0.2c-1.3,0.4-2.4,0.8-3.3,1.4c-2.2,0.9-4.4,1.8-6.8,2.7c-2.1,0.6-4.2,1-6.3,1.1
	c-2.2,0.3-4.4,0-6.4-0.6c-3-0.8-5.7-2-8.3-3.7c-1.9-1.5-3.4-3.3-4.4-5.5l-0.2-0.7c-0.4-1.3-0.3-2.6,0.2-3.8c0.1-0.4,0.3-0.7,0.4-0.9
	c0.1-0.2,0.3-0.2,0.4-0.3c0.2-0.1,0.6,0.1,1.1,0.3c0.4,0.1,0.8,0.3,1.3,0.5c0.1,0.1,0.3,0.2,0.3,0.3l0.1,0.2
	c-0.1,0.4-0.2,0.8-0.3,1.2s-0.1,0.8-0.3,1.2c-0.2,0.6-0.2,1.1,0,1.7c0.1,0.2,0.1,0.5,0.4,0.8c0.2,0.7,0.6,1.2,1.1,1.7
	c3.4,3.2,7.4,4.4,11.8,3.6c1.1-0.2,2-0.5,3-0.8c1.8-0.5,3.6-1.2,5.3-2c3.6-1.6,6.9-3.5,10.1-5.5c0.3-0.2,0.6-0.4,0.9-0.7
	c2.2-1.4,4.3-3.1,6.4-5c1.7-1.5,3.1-3.2,4.3-5.1c0.8-1.4,1.5-2.7,2.1-4.2c0.3-1,0.4-2,0.3-3c0-0.3,0-0.5-0.1-0.7
	c-0.1-0.5-0.5-0.7-0.9-1c-0.8-0.5-1.8-1-2.8-1.3c-0.1,0-0.1,0-0.3,0c-2.1-0.8-4.3-1.4-6.4-1.9c-1.5-0.4-3.1-0.8-4.6-1.3
	c-0.5-0.1-1.1-0.2-1.6-0.4s-1.1-0.3-1.5-0.4c-1.4-0.4-2.7-0.7-4-1.2c-3.3-1.2-6.5-2.5-9.5-4.2c-1.8-1-3.5-2.2-5.3-3.6
	c-3.2-2.7-5.5-6.2-6.7-10.3L50,40.1c-0.6-2.5-1.1-5-1.4-7.6c-0.2-2.9,0-5.6,0.5-8.4c0.7-3.1,1.6-6.3,2.7-9.3c1.1-3.1,2.3-6,3.8-8.9
	c1.6-3,3.2-5.9,5-8.7c2.5-3.8,5.1-7.4,8.1-10.8l0.1-0.2c0.7-0.9,1.6-1.6,2.5-2.5c0.9-0.9,1.7-1.5,2.3-2c-2.4,2.4-4.6,4.8-6.7,7.3
	l0.2-0.1c0.1,0,0.1,0,0.2-0.2c0.1,0,0.1,0,0.2-0.1c0-0.1,0-0.1,0.1-0.2l1.3-1.4c1.1-1.2,2.3-2.3,3.6-3.4c1.6-1.2,3.3-2.4,5.1-3.3
	c-0.4,0.4-0.8,0.7-1.2,1c-3.2,2.3-6,5.1-8.4,8.2c-2.6,3.1-4.9,6.3-6.9,9.8c-1.7,2.8-3.2,5.6-4.6,8.7c-0.7,1.5-1.3,3.1-2,4.7
	c-0.1,0.2-0.1,0.2-0.1,0.2c0,0.1,0,0.1,0.1,0.2l0.1,0.2c0.3-0.7,0.6-1.3,0.9-1.9c1.4-3.1,2.9-6.1,4.7-8.9c1.7-2.4,3.4-4.8,5.2-7.1
	c1.2-1.5,2.3-2.8,3.5-4.1c0.7-0.7,1.2-1.4,1.8-2c2.1-2,4.4-4,6.7-5.8c2-1.5,4.1-2.9,6.2-4c2.2-1.3,4.7-2.3,7.1-3
	c1.1-0.3,2.3-0.6,3.5-0.8c1,0,2-0.1,2.9,0c0.4,0.1,0.9,0.2,1.4,0.2c0.4,0,0.8,0,1.1,0c0.8,0,1.4,0.1,1.9,0.2c0.6,0.2,1.3,0.5,2,0.9
	c0.1-0.2,0.2-0.2,0.3-0.3c0.1,0,0.1,0,0.2-0.2c0-0.1,0-0.1,0-0.3c0.6-1.7,1.3-3.3,2.1-4.7c0.4-0.8,0.9-1.3,1.5-1.7
	c0.1-0.2,0.3-0.2,0.4-0.3c0.3-0.1,0.6-0.1,1,0.1c0.6,0.2,1,0.6,1.5,0.9c0.1,0.1,0.3,0.3,0.5,0.4c0.2,0.1,0.2,0.1,0.2,0.2
	c0,0.1,0,0.1,0,0.3l0.1,0.2c0.1,1.5-0.2,3-0.9,4.5c-0.1,0.2-0.2,0.5-0.3,0.7c-0.2,0.5-0.4,0.8-0.5,1.2c-0.1,0.4-0.3,0.7-0.5,1.2
	c0-0.1,0-0.1,0-0.3l0-0.1c0.1-0.2,0.1-0.4,0.1-0.5l0-0.1c-0.1-0.1-0.3,0-0.4-0.1c-0.1-0.1-0.1-0.1-0.2-0.2c0,0,0,0,0-0.1l-0.1-0.3
	c0-0.1,0-0.1-0.2-0.2c-0.1,0.2-0.2,0.3-0.2,0.5l-0.2,0.3c-1.8,4.5-3,9-4,13.8c-0.5,2.4-0.8,4.8-0.8,7.2c0,1.4,0.2,2.6,0.5,3.8
	l0.2,0.6c0.1-0.1,0.2-0.3,0.2-0.5c0-0.1-0.1-0.2-0.1-0.3c0.1-0.2,0.1-0.2,0-0.3c-0.3-2.3-0.1-4.5,0.3-6.8c1-4.7,2.2-9.3,3.7-13.8
	c0.1-0.2,0-0.3,0.1-0.4c0.1-0.4,0.3-0.7,0.6-1.1l0.1,0.3c0.1,0.4,0.1,0.6,0,0.9c-1,3.2-1.9,6.5-2.8,9.8c-0.8,2.8-1.3,5.6-1.5,8.4
	c-0.1,1.3-0.1,2.6,0,3.8c0,0.1,0,0.1,0.1,0.2c0,0.1,0,0.1,0.2,0.2L105,4c0.3-0.1,0.7-0.3,0.8-0.6c0.1-0.2,0.3-0.3,0.4-0.4
	s0.3,0,0.4,0.1l0.3,0.2c0,0.1,0,0.1,0.2,0.2c0.4,0.1,0.7,0.3,0.7,0.4c0,0.1-0.1,0.4-0.4,0.6c-0.4,0.5-0.9,0.8-1.5,0.9l-0.3,0.1
	c-0.3,0.1-0.4,0.3-0.4,0.4c0,0.1,0,0.1,0.2,0.2c0.3,0.7,0.8,0.9,1.2,0.8c0.2-0.1,0.5-0.1,0.7-0.3c0.3-0.1,0.7-0.3,0.7-0.5
	c0,0.3-0.2,0.6-0.4,0.8c-0.2,0.2-0.4,0.4-0.6,0.4c-0.1,0-0.3,0.1-0.5,0c-0.6-0.1-1.2-0.4-1.7-1c-0.1-0.3-0.3-0.5-0.7-0.6
	c-0.5,0-0.9,0-1.2-0.3c-0.3-0.2-0.5-0.5-0.7-0.8c-0.7-0.9-1.1-2.1-1.4-3.1c-0.2-0.8-0.5-1.5-0.5-2.2c-0.5-4.6-0.2-9,0.9-13.3
	c0.3-1.1,0.5-2.1,0.8-3c0.2-0.6,0.3-1.1,0.4-1.5c0.2-0.3,0.2-0.6,0.2-0.7c0-0.1-0.3-0.2-0.6-0.1c-1.6,0-3.3,0.2-4.8,0.7l-0.9,0.3
	c-3.9,1.5-7.5,3.6-10.8,6.1c-2.4,1.6-4.7,3.6-6.7,5.7c-3,3.2-5.7,6.7-8.2,10.3c-1.9,2.9-3.6,5.8-5.1,8.8c-2.1,4.2-3.8,8.5-5,13
	c-0.6,2.1-1.1,4.3-1.4,6.5c-0.5,3.1-0.5,6.2,0.1,9.4c0.1,0.6,0.2,1.1,0.4,1.7c0.7,2.4,2,4.5,3.9,6.3c2.5,2.2,5.3,3.9,8.3,5.1
	c3.1,1.3,6.4,2.4,9.8,3.3l3.5,1c1.2,0.4,2.4,0.8,3.6,1.1c1.9,0.5,3.8,1,5.6,1.7c1.8,0.6,3.6,1.6,5.3,2.8c1.3,1.1,2.2,2.4,2.7,3.9
	c0.2,0.8,0.4,1.8,0.3,2.7c0,1.5-0.3,3-0.9,4.5c-1.1,2.7-2.6,5.1-4.5,7.2c-2.5,2.6-5.2,4.8-8.2,6.8c-0.1,0.2-0.1,0.2-0.2,0.2
	c-0.1,0-0.2,0.1-0.3,0.1C88.5,89.7,88.7,89.5,88.8,89.3z M50.2,25.6c-0.1,0.2,0,0.4,0,0.5c0.1-0.2,0.1-0.2,0.2-0.3
	c0-0.1,0-0.1-0.1-0.2c0.1-0.2,0.1-0.2,0-0.3C50.3,25.4,50.2,25.4,50.2,25.6z M50.5,24.1l-0.1,0.5c0.1-0.2,0.2-0.5,0.3-0.6
	c0.1-0.2,0-0.3,0.1-0.4c0.5-1.8,1-3.6,1.7-5.2c0.4-0.8,0.6-1.4,0.3-2.3c-0.1-0.2-0.1-0.5-0.3-0.7C51.5,18.2,50.8,21.1,50.5,24.1z
	 M54.4,13.9l-0.2,0.3c0,0.1,0,0.1,0.1,0.1l0-0.1l0.1,0L54.4,13.9z M56.4,27.8l-0.2,0.3c-0.3,1-0.6,1.8-0.7,2.7l-0.3,1.4
	c-0.5,2.2-0.6,4.2-0.5,6.4c0,1.2,0.2,2.4,0.6,3.5c0.3,1.2,0.9,2.3,1.8,3.4c0.8,1.1,1.9,2.2,3.2,3.1c-0.4-0.6-0.9-1.3-1.3-2
	c-0.8-1.3-1.4-2.6-1.8-3.9c-0.5-1.6-0.7-3.3-0.7-5c-0.1-4.7,0.4-9,1.6-13.3l1-4.1c-1,2.2-1.6,4.4-2,6.7c-0.2,0.5-0.3,1-0.4,1.5
	l0-0.1c0-0.1,0-0.1,0-0.3l-0.1-0.3L56.4,27.8z M85.8,91.6l-0.3,0.1c0.1,0,0.1,0,0.2-0.2c0,0,0,0,0.1,0l0.2-0.1
	C85.9,91.5,85.9,91.5,85.8,91.6z M86.4,91.2c-0.1,0-0.3,0.1-0.4,0.3c0.1-0.2,0.3-0.3,0.4-0.4c0.1,0,0.3-0.1,0.5,0
	C86.8,91.1,86.6,91.1,86.4,91.2z M87.6,90.6c-0.3,0.1-0.5,0.3-0.7,0.5c0.2-0.6,0.7-1,1.3-1.1l0.2-0.1C88.1,90.2,87.9,90.3,87.6,90.6
	z M92-22.7c0.4,0,0.6-0.1,1-0.2c0.1,0,0.3-0.1,0.5-0.3c-0.6,0.1-1.1,0.2-1.4,0.3l-0.5,0.1C91.7-22.8,91.9-22.8,92-22.7z M97.8,68
	c0.4,1.3,0.5,2.6,0.4,3.9c-0.2,1.3-0.4,2.7-0.7,4c0.5-0.8,1-1.7,1.4-2.4c0.5-1.3,0.7-2.6,0.7-4c0-0.4-0.1-0.7-0.2-1.1
	c-0.4-1.3-1.3-2.2-2.7-2.8C97.2,66.4,97.6,67.1,97.8,68z"/>
<g class="st1">
	<path class="st2" d="M31.5,84.4H19.7l-2.5,5.7h-3.3L24,67.2h3.2l10.1,22.9H34L31.5,84.4z M30.4,81.8l-4.8-11.2l-4.8,11.2H30.4z"/>
</g>
</svg>
