<?xml version="1.0" encoding="utf-8"?>
<!-- Generator: Adobe Illustrator 24.3.0, SVG Export Plug-In . SVG Version: 6.00 Build 0)  -->
<svg version="1.1" xmlns="http://www.w3.org/2000/svg" xmlns:xlink="http://www.w3.org/1999/xlink" x="0px" y="0px"
	 viewBox="0 0 200 200" style="enable-background:new 0 0 200 200;" xml:space="preserve">
<style type="text/css">
	.st0{fill:url(#SVGID_1_);}
	.st1{fill:url(#SVGID_2_);}
	.st2{fill:url(#SVGID_3_);}
	.st3{fill:#171A1D;}
	.st4{fill:url(#SVGID_4_);}
	.st5{fill:url(#SVGID_5_);}
	.st6{fill:url(#SVGID_6_);}
	.st7{fill:url(#SVGID_7_);}
	.st8{fill:url(#SVGID_8_);}
	.st9{fill:url(#SVGID_9_);}
</style>
<g id="BACKGROUND">
</g>
<g id="OBJECT">
	<g>
		<g>
			
				<linearGradient id="SVGID_1_" gradientUnits="userSpaceOnUse" x1="533.4969" y1="512.2809" x2="545.9604" y2="529.1351" gradientTransform="matrix(-1 0 0 -1 1010.6204 1016.4918)">
				<stop  offset="0" style="stop-color:#F47373"/>
				<stop  offset="1" style="stop-color:#CF1F1F"/>
			</linearGradient>
			<rect x="459.66" y="486.24" class="st0" width="20.33" height="16.19"/>
		</g>
		<linearGradient id="SVGID_2_" gradientUnits="userSpaceOnUse" x1="421.2383" y1="494.3351" x2="469.5568" y2="494.3351">
			<stop  offset="0" style="stop-color:#F47373"/>
			<stop  offset="1" style="stop-color:#CF1F1F"/>
		</linearGradient>
		<polygon class="st1" points="421.24,442.41 421.24,458.5 453.47,458.5 453.47,530.17 437.33,530.17 437.33,523.41 421.24,523.41 
			421.24,546.26 469.56,546.26 469.56,442.41 		"/>
		<linearGradient id="SVGID_3_" gradientUnits="userSpaceOnUse" x1="387.8431" y1="442.5551" x2="391.9508" y2="547.7763">
			<stop  offset="0" style="stop-color:#F47373"/>
			<stop  offset="1" style="stop-color:#CF1F1F"/>
		</linearGradient>
		<polygon class="st2" points="414.02,466.57 414.02,442.41 365.71,442.41 365.71,546.26 414.02,546.26 414.02,530.17 
			381.79,530.17 381.79,458.5 397.94,458.5 397.94,466.57 		"/>
		<rect x="355.28" y="486.24" class="st3" width="83.51" height="16.19"/>
	</g>
	<g>
		<g>
			
				<linearGradient id="SVGID_4_" gradientUnits="userSpaceOnUse" x1="1039.6122" y1="963.6767" x2="1043.9967" y2="969.6057" gradientTransform="matrix(-1 0 0 -1 1010.6204 1016.4918)">
				<stop  offset="0" style="stop-color:#F47373"/>
				<stop  offset="1" style="stop-color:#CF1F1F"/>
			</linearGradient>
			<rect x="-35.14" y="46.49" class="st4" width="7.15" height="5.7"/>
		</g>
		<linearGradient id="SVGID_5_" gradientUnits="userSpaceOnUse" x1="-48.6515" y1="49.3409" x2="-31.6537" y2="49.3409">
			<stop  offset="0" style="stop-color:#F47373"/>
			<stop  offset="1" style="stop-color:#CF1F1F"/>
		</linearGradient>
		<polygon class="st5" points="-48.65,31.07 -48.65,36.73 -37.31,36.73 -37.31,61.95 -42.99,61.95 -42.99,59.57 -48.65,59.57 
			-48.65,67.61 -31.65,67.61 -31.65,31.07 		"/>
		<linearGradient id="SVGID_6_" gradientUnits="userSpaceOnUse" x1="-60.3994" y1="31.1255" x2="-58.9544" y2="68.1408">
			<stop  offset="0" style="stop-color:#F47373"/>
			<stop  offset="1" style="stop-color:#CF1F1F"/>
		</linearGradient>
		<polygon class="st6" points="-51.19,39.57 -51.19,31.07 -68.19,31.07 -68.19,67.61 -51.19,67.61 -51.19,61.95 -62.53,61.95 
			-62.53,36.73 -56.85,36.73 -56.85,39.57 		"/>
		<rect x="-71.86" y="46.49" class="st3" width="29.38" height="5.7"/>
	</g>
	<g>
		<g>
			
				<linearGradient id="SVGID_7_" gradientUnits="userSpaceOnUse" x1="823.0898" y1="901.9617" x2="841.4273" y2="926.759" gradientTransform="matrix(-1 0 0 -1 1010.6204 1016.4918)">
				<stop  offset="0" style="stop-color:#F47373"/>
				<stop  offset="1" style="stop-color:#CF1F1F"/>
			</linearGradient>
			<rect x="161.83" y="88.09" class="st7" width="29.91" height="23.83"/>
		</g>
		<linearGradient id="SVGID_8_" gradientUnits="userSpaceOnUse" x1="105.3073" y1="100" x2="176.3977" y2="100">
			<stop  offset="0" style="stop-color:#F47373"/>
			<stop  offset="1" style="stop-color:#CF1F1F"/>
		</linearGradient>
		<polygon class="st8" points="105.31,23.6 105.31,47.27 152.73,47.27 152.73,152.73 128.98,152.73 128.98,142.78 105.31,142.78 
			105.31,176.4 176.4,176.4 176.4,23.6 		"/>
		<linearGradient id="SVGID_9_" gradientUnits="userSpaceOnUse" x1="56.1733" y1="23.8168" x2="62.217" y2="178.6274">
			<stop  offset="0" style="stop-color:#F47373"/>
			<stop  offset="1" style="stop-color:#CF1F1F"/>
		</linearGradient>
		<polygon class="st9" points="94.69,59.16 94.69,23.6 23.6,23.6 23.6,176.4 94.69,176.4 94.69,152.73 47.27,152.73 47.27,47.27 
			71.02,47.27 71.02,59.16 		"/>
		<rect x="8.26" y="88.09" class="st3" width="122.86" height="23.83"/>
	</g>
	<text transform="matrix(1 0 0 1 486.9844 551.6885)" style="font-family:'TrebuchetMS'; font-size:162.2023px;">Asad</text>
</g>
</svg>
